<svg width="47" height="28" viewBox="0 0 47 28" fill="none" xmlns="http://www.w3.org/2000/svg">
<path d="M17.2712 19.5215H22.0399L18.7006 13.8212L24.4123 4.07027H35.835L41.546 13.8212L35.835 23.5714H28.3607L30.7448 27.6416H37.3112C37.8728 27.6416 38.3925 27.3458 38.6733 26.8662L45.8605 14.5959C46.1413 14.1163 46.1413 13.5254 45.8605 13.0458L38.6733 0.77543C38.3925 0.295823 37.8728 5.34058e-05 37.3112 5.34058e-05H22.936C22.3744 5.34058e-05 21.8548 0.295823 21.574 0.77543L14.3867 13.0465C14.1059 13.5261 14.1059 14.1169 14.3867 14.5965L17.2712 19.5215Z" fill="#EDEEF0"/>
<path d="M28.7993 8.12015H24.0305L27.3698 13.8205L21.6581 23.5714H10.2355L4.52447 13.8205L10.2355 4.07028H16.7462L14.3628 6.10352e-05H8.75988C8.19828 6.10352e-05 7.67866 0.29583 7.39786 0.775438L0.210601 13.0451C-0.0702002 13.5247 -0.0702002 14.1156 0.210601 14.5952L7.39786 26.8662C7.67866 27.3458 8.19828 27.6416 8.75988 27.6416H23.1351C23.6967 27.6416 24.2163 27.3458 24.4971 26.8662L31.6844 14.5952C31.9652 14.1156 31.9652 13.5247 31.6844 13.0451L28.8 8.12015H28.7993Z" fill="#EDEEF0"/>
</svg>
